HIERARCHY
ROOT Pelvis
{
	OFFSET 0.000000 0.000000 0.000000
	CHANNELS 6 Xposition Yposition Zposition Xrotation Yrotation Zrotation
	JOINT LeftUpLeg_virtual
	{
		OFFSET 0.000000 0.000000 0.000000
		CHANNELS 3 Xrotation Yrotation Zrotation
		JOINT LeftUpLeg
		{
			OFFSET 18.735201 -5.666702 -4.541200
			CHANNELS 3 Xrotation Yrotation Zrotation
			JOINT LeftLeg
			{
				OFFSET -0.021200 -31.938179 0.493100
				CHANNELS 3 Xrotation Yrotation Zrotation
				JOINT LeftFoot
				{
					OFFSET 0.021200 -31.938179 -4.336299
					CHANNELS 3 Xrotation Yrotation Zrotation
					JOINT LeftToeBase
					{
						OFFSET 0.943001 -26.722000 15.023500
						CHANNELS 3 Xrotation Yrotation Zrotation
						End Site
						{
							OFFSET 0 0 0
						}
					}
				}
			}
		}
	}
	JOINT RightUpLeg_virtual
	{
		OFFSET 0.000000 0.000000 0.000000
		CHANNELS 3 Xrotation Yrotation Zrotation
		JOINT RightUpLeg
		{
			OFFSET -18.735201 -5.666702 -4.541200
			CHANNELS 3 Xrotation Yrotation Zrotation
			JOINT RightLeg
			{
				OFFSET 0.018946 -31.938133 0.493100
				CHANNELS 3 Xrotation Yrotation Zrotation
				JOINT RightFoot
				{
					OFFSET -0.018946 -31.938126 -4.336299
					CHANNELS 3 Xrotation Yrotation Zrotation
					JOINT RightToeBase
					{
						OFFSET -0.943001 -26.722004 15.023500
						CHANNELS 3 Xrotation Yrotation Zrotation
						End Site
						{
							OFFSET 0 0 0
						}
					}
				}
			}
		}
	}
	JOINT Hips_virtual
	{
		OFFSET 0.000000 0.000000 0.000000
		CHANNELS 3 Xrotation Yrotation Zrotation
		JOINT Hips
		{
			OFFSET -0.000000 -0.000000 -0.000000
			CHANNELS 3 Xrotation Yrotation Zrotation
			JOINT Spine
			{
				OFFSET 0.000000 10.199997 -0.299500
				CHANNELS 3 Xrotation Yrotation Zrotation
				JOINT Spine1
				{
					OFFSET 0.000000 11.900002 -1.516600
					CHANNELS 3 Xrotation Yrotation Zrotation
					JOINT Spine2
					{
						OFFSET 0.000000 13.600006 -2.842500
						CHANNELS 3 Xrotation Yrotation Zrotation
						JOINT Neck_virtual
						{
							OFFSET 0.000000 0.000000 0.000000
							CHANNELS 3 Xrotation Yrotation Zrotation
							JOINT Neck
							{
								OFFSET 0.000000 9.624100 -2.890100
								CHANNELS 3 Xrotation Yrotation Zrotation
								JOINT Head
								{
									OFFSET 0.000000 14.068802 -1.351900
									CHANNELS 3 Xrotation Yrotation Zrotation
									End Site
									{
										OFFSET 0 0 0
									}
								}
							}
						}
						JOINT LeftShoulder_virtual
						{
							OFFSET 0.000000 0.000000 0.000000
							CHANNELS 3 Xrotation Yrotation Zrotation
							JOINT LeftShoulder
							{
								OFFSET 15.263000 10.923401 -0.547700
								CHANNELS 3 Xrotation Yrotation Zrotation
								JOINT LeftArm
								{
									OFFSET 25.438599 -2.830597 -13.032500
									CHANNELS 3 Xrotation Yrotation Zrotation
									JOINT LeftForeArm
									{
										OFFSET 29.960503 0.000000 0.000000
										CHANNELS 3 Xrotation Yrotation Zrotation
										JOINT LeftHand
										{
											OFFSET 27.849251 0.000000 0.000000
											CHANNELS 3 Xrotation Yrotation Zrotation
											End Site
											{
												OFFSET 0 0 0
											}
										}
									}
								}
							}
						}
						JOINT RightShoulder_virtual
						{
							OFFSET 0.000000 0.000000 0.000000
							CHANNELS 3 Xrotation Yrotation Zrotation
							JOINT RightShoulder
							{
								OFFSET -15.263000 10.923401 -0.547700
								CHANNELS 3 Xrotation Yrotation Zrotation
								JOINT RightArm
								{
									OFFSET -25.438599 -2.830597 -13.032500
									CHANNELS 3 Xrotation Yrotation Zrotation
									JOINT RightForeArm
									{
										OFFSET -29.960503 0.000000 0.000000
										CHANNELS 3 Xrotation Yrotation Zrotation
										JOINT RightHand
										{
											OFFSET -27.849251 0.000000 0.000000
											CHANNELS 3 Xrotation Yrotation Zrotation
											End Site
											{
												OFFSET 0 0 0
											}
										}
									}
								}
							}
						}
					}
				}
			}
		}
	}
}
MOTION
Frames: 10
Frame Time: 0.03333333
1.585472 89.019730 -4.073635 0.000000 0.000000 0.000000 -178.376223 24.213716 -178.136825 -26.909284 -8.348145 12.987156 27.875798 -0.959023 -1.107890 0.125870 -2.768197 -16.824566 0.000000 0.000000 0.000000 -178.376223 24.213716 -178.136825 -18.977971 -11.345320 -22.692569 44.800092 2.117219 1.788153 -22.724019 -9.831863 12.618357 0.000000 0.000000 0.000000 -178.376223 24.213716 -178.136825 0.000000 -0.000001 0.000000 5.547813 -0.029679 -0.187511 11.095623 0.009769 -0.734627 0.000000 0.000000 0.000000 11.095629 0.009765 -0.734625 -2.094171 -0.354144 -0.652391 0.000000 0.000000 0.000000 11.095629 0.009765 -0.734625 9.458516 -6.444348 -14.996466 -9.678080 10.609533 -35.777200 0.014658 -55.260984 0.179001 0.000000 0.000000 0.000000 11.095629 0.009765 -0.734625 -3.413065 0.044908 -0.357072 -8.509094 -11.385597 60.673581 -0.093511 56.136826 -0.118096 0.000000 0.000000 0.000000 
1.614309 88.869057 -4.022953 0.000000 0.000000 0.000000 -178.903732 25.162314 -178.074247 -27.767021 -7.257786 13.699295 29.034718 -1.015776 -1.153854 -0.627279 -3.177972 -16.725871 0.000000 0.000000 0.000000 -178.903732 25.162314 -178.074247 -19.998845 -10.391621 -22.313214 45.335473 2.100277 1.803326 -22.631164 -9.682898 12.538724 0.000000 0.000000 0.000000 -178.903732 25.162314 -178.074247 0.000000 0.000001 0.000000 5.541160 -0.067816 -0.242439 11.081762 -0.077129 -0.835931 0.000000 0.000000 0.000000 11.081765 -0.077131 -0.835930 -2.183162 -0.433093 -0.619568 0.000000 0.000000 0.000000 11.081765 -0.077131 -0.835930 9.412424 -6.453412 -14.019423 -8.662124 10.477073 -35.400488 0.010218 -54.481950 0.179147 0.000000 0.000000 0.000000 11.081765 -0.077131 -0.835930 -3.299630 0.252112 -0.421618 -8.140540 -9.974488 59.691837 -0.093568 55.025421 -0.121928 0.000000 0.000000 0.000000 
1.662197 88.631973 -3.948090 0.000000 0.000000 0.000000 -179.695898 26.554864 -177.948489 -28.885266 -6.070480 14.654096 30.659606 -1.099751 -1.218563 -1.714671 -3.346065 -16.696850 0.000000 0.000000 0.000000 -179.695898 26.554864 -177.948489 -21.514449 -9.078340 -21.803072 46.089085 2.077248 1.824730 -22.466883 -9.364118 12.441202 0.000000 0.000000 0.000000 -179.695898 26.554864 -177.948489 0.000000 -0.000001 0.000000 5.532431 -0.105200 -0.306325 11.063668 -0.166390 -0.951348 0.000000 0.000000 0.000000 11.063668 -0.166376 -0.951353 -2.262709 -0.510585 -0.589147 0.000000 0.000000 0.000000 11.063668 -0.166376 -0.951353 9.287392 -6.480147 -13.016980 -7.148102 10.286331 -34.868136 0.002826 -53.374397 0.177103 0.000000 0.000000 0.000000 11.063668 -0.166376 -0.951353 -3.131420 0.557777 -0.519412 -7.620064 -7.972473 58.297290 -0.094659 53.382836 -0.125884 0.000000 0.000000 0.000000 
1.748145 88.176292 -3.805820 0.000000 0.000000 0.000000 178.792346 29.158518 -177.612034 -30.776242 -4.566499 16.289115 33.583863 -1.259231 -1.335248 -3.711876 -2.937334 -16.769586 0.000000 0.000000 0.000000 178.792346 29.158518 -177.612034 -24.382624 -6.744416 -20.816940 47.440527 2.034680 1.862919 -22.106974 -8.690420 12.287966 0.000000 0.000000 0.000000 178.792346 29.158518 -177.612034 0.000000 0.000001 0.000000 5.517196 -0.140128 -0.396450 11.032438 -0.262064 -1.106975 0.000000 0.000000 0.000000 11.032438 -0.262066 -1.106976 -2.316568 -0.583108 -0.564080 0.000000 0.000000 0.000000 11.032438 -0.262066 -1.106976 8.947997 -6.559115 -11.945468 -4.288839 9.928083 -33.890903 -0.012137 -51.337017 0.169252 0.000000 0.000000 0.000000 11.032438 -0.262066 -1.106976 -2.814930 1.132005 -0.706646 -6.670052 -4.296613 55.732677 -0.098524 50.295949 -0.129488 0.000000 0.000000 0.000000 
1.854293 87.573601 -3.625973 0.000000 0.000000 0.000000 176.815279 32.465983 -176.985474 -32.924333 -3.127988 18.296176 37.108397 -1.468898 -1.476365 -6.206876 -1.955941 -16.991433 0.000000 0.000000 0.000000 176.815279 32.465983 -176.985474 -28.115729 -4.148115 -19.547100 49.051509 1.979731 1.908213 -21.575642 -7.538560 12.140043 0.000000 0.000000 0.000000 176.815279 32.465983 -176.985474 0.000000 0.000000 0.000000 5.500702 -0.171650 -0.503132 10.998609 -0.359422 -1.282566 0.000000 0.000000 0.000000 10.998614 -0.359415 -1.282568 -2.357857 -0.653616 -0.541351 0.000000 0.000000 0.000000 10.998614 -0.359415 -1.282568 8.482504 -6.666479 -10.834774 -0.632538 9.485282 -32.710971 -0.030045 -48.869642 0.157709 0.000000 0.000000 0.000000 10.998614 -0.359415 -1.282568 -2.413236 1.858728 -0.950986 -5.525518 0.166516 52.613774 -0.105290 46.386478 -0.129174 0.000000 0.000000 0.000000 
1.975300 86.840019 -3.422901 0.000000 0.000000 0.000000 174.420683 36.276053 -175.959689 -34.976692 -1.990588 20.424620 40.875639 -1.720228 -1.628196 -8.995557 -0.204496 -17.360234 0.000000 0.000000 0.000000 174.420683 36.276053 -175.959689 -32.507596 -1.726027 -18.221193 50.726637 1.916218 1.954994 -20.817563 -5.655344 12.029621 0.000000 0.000000 0.000000 174.420683 36.276053 -175.959689 0.000000 -0.000001 0.000000 5.485832 -0.200041 -0.622785 10.967963 -0.456348 -1.467950 0.000000 0.000000 0.000000 10.967957 -0.456353 -1.467954 -2.392243 -0.723623 -0.519805 0.000000 0.000000 0.000000 10.967957 -0.456353 -1.467954 7.923498 -6.793116 -9.696481 3.618962 8.990145 -31.439853 -0.048229 -46.189694 0.144618 0.000000 0.000000 0.000000 10.967957 -0.456353 -1.467954 -1.949880 2.693289 -1.242066 -4.293310 5.023912 49.216321 -0.114442 41.886900 -0.125066 0.000000 0.000000 0.000000 
2.108696 85.994507 -3.218428 0.000000 0.000000 0.000000 171.628269 40.377107 -174.431789 -36.853426 -1.079868 22.569749 44.760139 -2.006360 -1.785551 -11.998763 2.095505 -17.808569 0.000000 0.000000 0.000000 171.628269 40.377107 -174.431789 -37.346860 0.408301 -16.790623 52.446007 1.846209 2.002847 -19.932826 -3.224133 11.924251 0.000000 0.000000 0.000000 171.628269 40.377107 -174.431789 0.000001 -0.000001 0.000000 5.475451 -0.225409 -0.749958 10.946321 -0.549788 -1.653778 0.000000 0.000000 0.000000 10.946322 -0.549781 -1.653778 -2.425484 -0.794346 -0.497735 0.000000 0.000000 0.000000 10.946322 -0.549781 -1.653778 7.303186 -6.929792 -8.542117 8.264776 8.477101 -30.187462 -0.064719 -43.516190 0.131133 0.000000 0.000000 0.000000 10.946322 -0.549781 -1.653778 -1.448412 3.591149 -1.569065 -3.068862 9.890805 45.806046 -0.120229 37.030062 -0.109104 0.000000 0.000000 0.000000 
2.260345 85.046913 -3.035597 0.000000 0.000000 0.000000 168.436987 44.544185 -172.318897 -38.333163 -0.371715 24.539717 48.546396 -2.317826 -1.940545 -15.096342 4.885724 -18.342272 0.000000 0.000000 0.000000 168.436987 44.544185 -172.318897 -42.378742 2.079205 -15.402831 54.136899 1.774922 2.049788 -18.973794 -0.256319 11.821767 0.000000 0.000000 0.000000 168.436987 44.544185 -172.318897 0.000000 -0.000003 0.000000 5.472578 -0.248854 -0.877139 10.939728 -0.638318 -1.830243 0.000000 0.000000 0.000000 10.939730 -0.638315 -1.830245 -2.463339 -0.867264 -0.473827 0.000000 0.000000 0.000000 10.939730 -0.638315 -1.830245 6.653648 -7.067143 -7.382980 13.104361 7.983228 -29.063452 -0.079176 -41.067267 0.117479 0.000000 0.000000 0.000000 10.939730 -0.638315 -1.830245 -0.932253 4.507644 -1.920480 -1.932360 14.389585 42.641165 -0.109155 32.047671 -0.072576 0.000000 0.000000 0.000000 
2.444310 84.014496 -2.897091 0.000000 0.000000 0.000000 164.844512 48.549237 -169.578926 -39.494619 0.234502 26.293274 52.192214 -2.642363 -2.090466 -18.216041 7.871054 -18.849010 0.000000 0.000000 0.000000 164.844512 48.549237 -169.578926 -47.426498 3.324852 -14.082469 55.886858 1.708202 2.098521 -18.079082 2.980146 11.678684 0.000000 0.000000 0.000000 164.844512 48.549237 -169.578926 0.000001 -0.000002 0.000000 5.480093 -0.270740 -0.996027 10.954006 -0.719035 -1.988077 0.000000 0.000000 0.000000 10.953995 -0.719056 -1.988071 -2.511353 -0.943538 -0.446153 0.000000 0.000000 0.000000 10.953995 -0.719056 -1.988071 6.007328 -7.195624 -6.230388 17.938922 7.547988 -28.176468 -0.086422 -39.060660 0.105277 0.000000 0.000000 0.000000 10.953995 -0.719056 -1.988071 -0.424221 5.398004 -2.284076 -0.991873 18.110247 40.023932 -0.089878 27.172374 -0.038652 0.000000 0.000000 0.000000 
2.766355 82.916260 -2.881021 0.000000 0.000000 0.000000 161.213447 52.195575 -166.509589 -39.947854 0.796882 27.763421 55.573506 -2.972489 -2.231496 -21.420771 10.871985 -19.412731 0.000000 0.000000 0.000000 161.213447 52.195575 -166.509589 -51.987773 4.223082 -12.913552 57.877848 1.665809 2.155291 -17.587440 6.198112 11.518683 0.000000 0.000000 0.000000 161.213447 52.195575 -166.509589 0.000000 -0.000001 0.000000 5.498021 -0.291646 -1.091734 10.989095 -0.794479 -2.115240 0.000000 0.000000 0.000000 10.989108 -0.794450 -2.115252 -2.552572 -1.017086 -0.422462 0.000000 0.000000 0.000000 10.989108 -0.794450 -2.115252 5.436816 -7.313346 -5.095667 22.274538 6.921059 -27.665463 -0.083781 -37.079649 0.093301 0.000000 0.000000 0.000000 10.989108 -0.794450 -2.115252 0.039501 6.229280 -2.603958 -0.303248 20.939497 38.521191 -0.074779 22.628871 -0.015798 0.000000 0.000000 0.000000 
